<svg width="88" height="68" viewBox="0 0 88 68" fill="none" xmlns="http://www.w3.org/2000/svg">
<mask id="path-1-outside-1_16_2398" maskUnits="userSpaceOnUse" x="-1" y="-1" width="90" height="70" fill="black">
<rect fill="white" x="-1" y="-1" width="90" height="70"/>
<path d="M21.56 5.6V-1.90735e-06H0.8V28H7.92V17.68H20.48V12.08H7.92V5.6H21.56ZM50.1406 -1.90735e-06H43.0606V16.24C43.0606 20.04 40.7806 22.36 37.4206 22.36C34.0206 22.36 31.5806 20.04 31.5806 16.24V-1.90735e-06H24.4606V16.24C24.4606 23.64 29.5006 28.32 37.3806 28.32C45.2206 28.32 50.1406 23.64 50.1406 16.24V-1.90735e-06ZM81.0931 28V-1.90735e-06H74.4531V17.28L61.5331 -1.90735e-06H55.2531V28H61.9331V10.76L74.8131 28H81.0931ZM26.64 67V39H19.52V50.52H7.92V39H0.8V67H7.92V56.12H19.52V67H26.64ZM50.8453 61.84L52.8453 67H60.4453L48.6453 39H41.3253L29.2453 67H36.5653L38.6053 61.84H50.8453ZM48.7653 56.44H40.6853L44.7653 46.08L48.7653 56.44ZM87.4453 39H80.3653V55.24C80.3653 59.04 78.0853 61.36 74.7253 61.36C71.3253 61.36 68.8853 59.04 68.8853 55.24V39H61.7653V55.24C61.7653 62.64 66.8053 67.32 74.6853 67.32C82.5253 67.32 87.4453 62.64 87.4453 55.24V39Z"/>
</mask>
<path d="M21.56 5.6V-1.90735e-06H0.8V28H7.92V17.68H20.48V12.08H7.92V5.6H21.56ZM50.1406 -1.90735e-06H43.0606V16.24C43.0606 20.04 40.7806 22.36 37.4206 22.36C34.0206 22.36 31.5806 20.04 31.5806 16.24V-1.90735e-06H24.4606V16.24C24.4606 23.64 29.5006 28.32 37.3806 28.32C45.2206 28.32 50.1406 23.64 50.1406 16.24V-1.90735e-06ZM81.0931 28V-1.90735e-06H74.4531V17.28L61.5331 -1.90735e-06H55.2531V28H61.9331V10.76L74.8131 28H81.0931ZM26.64 67V39H19.52V50.52H7.92V39H0.8V67H7.92V56.12H19.52V67H26.64ZM50.8453 61.84L52.8453 67H60.4453L48.6453 39H41.3253L29.2453 67H36.5653L38.6053 61.84H50.8453ZM48.7653 56.44H40.6853L44.7653 46.08L48.7653 56.44ZM87.4453 39H80.3653V55.24C80.3653 59.04 78.0853 61.36 74.7253 61.36C71.3253 61.36 68.8853 59.04 68.8853 55.24V39H61.7653V55.24C61.7653 62.64 66.8053 67.32 74.6853 67.32C82.5253 67.32 87.4453 62.64 87.4453 55.24V39Z" fill="#F2F2F2"/>
<path d="M21.56 5.6V6.6H22.56V5.6H21.56ZM21.56 -1.90735e-06H22.56V-1H21.56V-1.90735e-06ZM0.8 -1.90735e-06V-1H-0.2V-1.90735e-06H0.8ZM0.8 28H-0.2V29H0.8V28ZM7.92 28V29H8.92V28H7.92ZM7.92 17.68V16.68H6.92V17.68H7.92ZM20.48 17.68V18.68H21.48V17.68H20.48ZM20.48 12.08H21.48V11.08H20.48V12.08ZM7.92 12.08H6.92V13.08H7.92V12.08ZM7.92 5.6V4.6H6.92V5.6H7.92ZM22.56 5.6V-1.90735e-06H20.56V5.6H22.56ZM21.56 -1H0.8V0.999998H21.56V-1ZM-0.2 -1.90735e-06V28H1.8V-1.90735e-06H-0.2ZM0.8 29H7.92V27H0.8V29ZM8.92 28V17.68H6.92V28H8.92ZM7.92 18.68H20.48V16.68H7.92V18.68ZM21.48 17.68V12.08H19.48V17.68H21.48ZM20.48 11.08H7.92V13.08H20.48V11.08ZM8.92 12.08V5.6H6.92V12.08H8.92ZM7.92 6.6H21.56V4.6H7.92V6.6ZM50.1406 -1.90735e-06H51.1406V-1H50.1406V-1.90735e-06ZM43.0606 -1.90735e-06V-1H42.0606V-1.90735e-06H43.0606ZM31.5806 -1.90735e-06H32.5806V-1H31.5806V-1.90735e-06ZM24.4606 -1.90735e-06V-1H23.4606V-1.90735e-06H24.4606ZM50.1406 -1H43.0606V0.999998H50.1406V-1ZM42.0606 -1.90735e-06V16.24H44.0606V-1.90735e-06H42.0606ZM42.0606 16.24C42.0606 17.9405 41.5533 19.2075 40.7714 20.0407C39.9947 20.8685 38.8619 21.36 37.4206 21.36V23.36C39.3393 23.36 41.0266 22.6915 42.2298 21.4093C43.4279 20.1325 44.0606 18.3395 44.0606 16.24H42.0606ZM37.4206 21.36C35.9532 21.36 34.7626 20.8638 33.9395 20.0247C33.1163 19.1856 32.5806 17.9217 32.5806 16.24H30.5806C30.5806 18.3583 31.2649 20.1544 32.5118 21.4253C33.7586 22.6962 35.488 23.36 37.4206 23.36V21.36ZM32.5806 16.24V-1.90735e-06H30.5806V16.24H32.5806ZM31.5806 -1H24.4606V0.999998H31.5806V-1ZM23.4606 -1.90735e-06V16.24H25.4606V-1.90735e-06H23.4606ZM23.4606 16.24C23.4606 20.1764 24.8077 23.4758 27.2834 25.7861C29.7515 28.0893 33.2446 29.32 37.3806 29.32V27.32C33.6367 27.32 30.6697 26.2107 28.6479 24.3239C26.6336 22.4442 25.4606 19.7036 25.4606 16.24H23.4606ZM37.3806 29.32C41.4984 29.32 44.9545 28.0882 47.3886 25.7807C49.8285 23.4678 51.1406 20.1691 51.1406 16.24H49.1406C49.1406 19.7109 47.9927 22.4522 46.0127 24.3293C44.0267 26.2118 41.1028 27.32 37.3806 27.32V29.32ZM51.1406 16.24V-1.90735e-06H49.1406V16.24H51.1406ZM81.0931 28V29H82.0931V28H81.0931ZM81.0931 -1.90735e-06H82.0931V-1H81.0931V-1.90735e-06ZM74.4531 -1.90735e-06V-1H73.4531V-1.90735e-06H74.4531ZM74.4531 17.28L73.6522 17.8788L75.4531 20.2874V17.28H74.4531ZM61.5331 -1.90735e-06L62.334 -0.598814L62.034 -1H61.5331V-1.90735e-06ZM55.2531 -1.90735e-06V-1H54.2531V-1.90735e-06H55.2531ZM55.2531 28H54.2531V29H55.2531V28ZM61.9331 28V29H62.9331V28H61.9331ZM61.9331 10.76L62.7342 10.1615L60.9331 7.75068V10.76H61.9331ZM74.8131 28L74.012 28.5985L74.312 29H74.8131V28ZM82.0931 28V-1.90735e-06H80.0931V28H82.0931ZM81.0931 -1H74.4531V0.999998H81.0931V-1ZM73.4531 -1.90735e-06V17.28H75.4531V-1.90735e-06H73.4531ZM75.254 16.6812L62.334 -0.598814L60.7322 0.598811L73.6522 17.8788L75.254 16.6812ZM61.5331 -1H55.2531V0.999998H61.5331V-1ZM54.2531 -1.90735e-06V28H56.2531V-1.90735e-06H54.2531ZM55.2531 29H61.9331V27H55.2531V29ZM62.9331 28V10.76H60.9331V28H62.9331ZM61.132 11.3585L74.012 28.5985L75.6142 27.4015L62.7342 10.1615L61.132 11.3585ZM74.8131 29H81.0931V27H74.8131V29ZM26.64 67V68H27.64V67H26.64ZM26.64 39H27.64V38H26.64V39ZM19.52 39V38H18.52V39H19.52ZM19.52 50.52V51.52H20.52V50.52H19.52ZM7.92 50.52H6.92V51.52H7.92V50.52ZM7.92 39H8.92V38H7.92V39ZM0.8 39V38H-0.2V39H0.8ZM0.8 67H-0.2V68H0.8V67ZM7.92 67V68H8.92V67H7.92ZM7.92 56.12V55.12H6.92V56.12H7.92ZM19.52 56.12H20.52V55.12H19.52V56.12ZM19.52 67H18.52V68H19.52V67ZM27.64 67V39H25.64V67H27.64ZM26.64 38H19.52V40H26.64V38ZM18.52 39V50.52H20.52V39H18.52ZM19.52 49.52H7.92V51.52H19.52V49.52ZM8.92 50.52V39H6.92V50.52H8.92ZM7.92 38H0.8V40H7.92V38ZM-0.2 39V67H1.8V39H-0.2ZM0.8 68H7.92V66H0.8V68ZM8.92 67V56.12H6.92V67H8.92ZM7.92 57.12H19.52V55.12H7.92V57.12ZM18.52 56.12V67H20.52V56.12H18.52ZM19.52 68H26.64V66H19.52V68ZM50.8453 61.84L51.7777 61.4786L51.5302 60.84H50.8453V61.84ZM52.8453 67L51.9129 67.3614L52.1604 68H52.8453V67ZM60.4453 67V68H61.9519L61.3668 66.6116L60.4453 67ZM48.6453 39L49.5668 38.6116L49.3091 38H48.6453V39ZM41.3253 39V38H40.6676L40.4071 38.6039L41.3253 39ZM29.2453 67L28.3271 66.6039L27.7248 68H29.2453V67ZM36.5653 67V68H37.2453L37.4953 67.3677L36.5653 67ZM38.6053 61.84V60.84H37.9253L37.6754 61.4723L38.6053 61.84ZM48.7653 56.44V57.44H50.2234L49.6982 56.0798L48.7653 56.44ZM40.6853 56.44L39.7549 56.0736L39.2167 57.44H40.6853V56.44ZM44.7653 46.08L45.6982 45.7198L44.7745 43.3275L43.8349 45.7136L44.7653 46.08ZM49.9129 62.2014L51.9129 67.3614L53.7777 66.6386L51.7777 61.4786L49.9129 62.2014ZM52.8453 68H60.4453V66H52.8453V68ZM61.3668 66.6116L49.5668 38.6116L47.7238 39.3883L59.5238 67.3884L61.3668 66.6116ZM48.6453 38H41.3253V40H48.6453V38ZM40.4071 38.6039L28.3271 66.6039L30.1635 67.3961L42.2435 39.3961L40.4071 38.6039ZM29.2453 68H36.5653V66H29.2453V68ZM37.4953 67.3677L39.5353 62.2077L37.6754 61.4723L35.6354 66.6323L37.4953 67.3677ZM38.6053 62.84H50.8453V60.84H38.6053V62.84ZM48.7653 55.44H40.6853V57.44H48.7653V55.44ZM41.6158 56.8064L45.6958 46.4464L43.8349 45.7136L39.7549 56.0736L41.6158 56.8064ZM43.8324 46.4402L47.8324 56.8002L49.6982 56.0798L45.6982 45.7198L43.8324 46.4402ZM87.4453 39H88.4453V38H87.4453V39ZM80.3653 39V38H79.3653V39H80.3653ZM68.8853 39H69.8853V38H68.8853V39ZM61.7653 39V38H60.7653V39H61.7653ZM87.4453 38H80.3653V40H87.4453V38ZM79.3653 39V55.24H81.3653V39H79.3653ZM79.3653 55.24C79.3653 56.9405 78.858 58.2075 78.0761 59.0407C77.2994 59.8685 76.1666 60.36 74.7253 60.36V62.36C76.644 62.36 78.3313 61.6915 79.5345 60.4093C80.7326 59.1325 81.3653 57.3395 81.3653 55.24H79.3653ZM74.7253 60.36C73.2579 60.36 72.0673 59.8638 71.2442 59.0247C70.421 58.1856 69.8853 56.9217 69.8853 55.24H67.8853C67.8853 57.3583 68.5696 59.1544 69.8165 60.4253C71.0633 61.6962 72.7927 62.36 74.7253 62.36V60.36ZM69.8853 55.24V39H67.8853V55.24H69.8853ZM68.8853 38H61.7653V40H68.8853V38ZM60.7653 39V55.24H62.7653V39H60.7653ZM60.7653 55.24C60.7653 59.1764 62.1124 62.4758 64.5881 64.7861C67.0562 67.0893 70.5493 68.32 74.6853 68.32V66.32C70.9414 66.32 67.9744 65.2107 65.9526 63.3239C63.9383 61.4442 62.7653 58.7036 62.7653 55.24H60.7653ZM74.6853 68.32C78.8031 68.32 82.2592 67.0882 84.6933 64.7807C87.1332 62.4678 88.4453 59.1691 88.4453 55.24H86.4453C86.4453 58.7109 85.2974 61.4522 83.3173 63.3293C81.3314 65.2119 78.4075 66.32 74.6853 66.32V68.32ZM88.4453 55.24V39H86.4453V55.24H88.4453Z" fill="#F2F2F2" mask="url(#path-1-outside-1_16_2398)"/>
</svg>
