<svg width="25" height="30" viewBox="0 0 25 30" fill="none" xmlns="http://www.w3.org/2000/svg">
<mask id="path-1-outside-1_16_2399" maskUnits="userSpaceOnUse" x="-1" y="-1" width="27" height="32" fill="black">
<rect fill="white" x="-1" y="-1" width="27" height="32"/>
<path d="M13.56 0.68C6.84 0.68 2.4 3.96 2.4 9.12C2.4 19.04 17.2 16.08 17.2 21.04C17.2 22.64 15.8 23.48 13.56 23.48C10.64 23.48 6.32 21.8 3.44 19.28L0.68 24.76C4 27.48 8.8 29.24 13.48 29.24C19.72 29.24 24.68 26.28 24.68 20.68C24.68 10.56 9.88 13.32 9.88 8.48C9.88 7.12 11.12 6.44 12.96 6.44C15.24 6.44 18.96 7.64 21.92 9.36L24.6 3.8C21.72 1.92 17.6 0.68 13.56 0.68Z"/>
</mask>
<path d="M3.44 19.28L4.0985 18.5274L3.12735 17.6777L2.54688 18.8302L3.44 19.28ZM0.68 24.76L-0.21312 24.3102L-0.573526 25.0258L0.0462549 25.5335L0.68 24.76ZM21.92 9.36L21.4176 10.2246L22.3517 10.7674L22.8208 9.7942L21.92 9.36ZM24.6 3.8L25.5008 4.2342L25.8823 3.44283L25.1466 2.96262L24.6 3.8ZM13.56 -0.32C10.0499 -0.32 7.02913 0.535372 4.85934 2.16549C2.66275 3.81575 1.4 6.21954 1.4 9.12H3.4C3.4 6.86045 4.35725 5.04424 6.06066 3.76451C7.79087 2.46463 10.3501 1.68 13.56 1.68V-0.32ZM1.4 9.12C1.4 11.8939 2.45401 13.8446 4.05991 15.2277C5.61482 16.5669 7.63667 17.33 9.51028 17.8971C10.4475 18.1808 11.4044 18.4309 12.2472 18.6672C13.1104 18.9093 13.8703 19.1409 14.5047 19.4038C15.831 19.9535 16.2 20.4597 16.2 21.04H18.2C18.2 19.1403 16.719 18.1565 15.2703 17.5562C14.5172 17.2441 13.6583 16.9857 12.7871 16.7415C11.8956 16.4916 11.0025 16.2592 10.0897 15.9829C8.26333 15.43 6.58518 14.7631 5.36509 13.7123C4.19599 12.7054 3.4 11.3061 3.4 9.12H1.4ZM16.2 21.04C16.2 21.4959 16.0259 21.7932 15.6745 22.0219C15.2697 22.2853 14.5782 22.48 13.56 22.48V24.48C14.7818 24.48 15.9103 24.2547 16.7655 23.6981C17.6741 23.1068 18.2 22.1841 18.2 21.04H16.2ZM13.56 22.48C12.2687 22.48 10.5903 22.1025 8.86213 21.3988C7.14214 20.6985 5.44169 19.7027 4.0985 18.5274L2.7815 20.0326C4.31831 21.3773 6.21786 22.4815 8.10787 23.2512C9.98975 24.0175 11.9313 24.48 13.56 24.48V22.48ZM2.54688 18.8302L-0.21312 24.3102L1.57312 25.2098L4.33312 19.7298L2.54688 18.8302ZM0.0462549 25.5335C3.5477 28.4022 8.57245 30.24 13.48 30.24V28.24C9.02755 28.24 4.4523 26.5578 1.31375 23.9865L0.0462549 25.5335ZM13.48 30.24C16.742 30.24 19.7641 29.4685 22.0005 27.8743C24.2712 26.2556 25.68 23.8184 25.68 20.68H23.68C23.68 23.1416 22.6088 24.9844 20.8395 26.2457C19.0359 27.5315 16.458 28.24 13.48 28.24V30.24ZM25.68 20.68C25.68 17.8641 24.6328 15.8683 23.0339 14.4394C21.4818 13.0523 19.4616 12.2461 17.5838 11.6473C16.6428 11.3472 15.6896 11.0853 14.8424 10.8386C13.9773 10.5867 13.2154 10.3487 12.5782 10.0824C11.2352 9.521 10.88 9.02247 10.88 8.48H8.88C8.88 10.3575 10.3748 11.329 11.8068 11.9276C12.5571 12.2413 13.4139 12.5058 14.2833 12.7589C15.1704 13.0172 16.0672 13.2628 16.9762 13.5527C18.7984 14.1339 20.4782 14.8377 21.7011 15.9306C22.8772 16.9817 23.68 18.4359 23.68 20.68H25.68ZM10.88 8.48C10.88 8.16257 10.9972 7.96349 11.2628 7.79623C11.582 7.59528 12.1399 7.44 12.96 7.44V5.44C11.9401 5.44 10.958 5.62472 10.1972 6.10377C9.38283 6.61651 8.88 7.43743 8.88 8.48H10.88ZM12.96 7.44C14.9998 7.44 18.5436 8.55461 21.4176 10.2246L22.4224 8.49537C19.3764 6.72539 15.4802 5.44 12.96 5.44V7.44ZM22.8208 9.7942L25.5008 4.2342L23.6992 3.36579L21.0192 8.92579L22.8208 9.7942ZM25.1466 2.96262C22.0936 0.969674 17.7812 -0.32 13.56 -0.32V1.68C17.4188 1.68 21.3464 2.87032 24.0534 4.63738L25.1466 2.96262Z" fill="#F2F2F2" mask="url(#path-1-outside-1_16_2399)"/>
</svg>
